<mxfile host="app.diagrams.net" agent="Mozilla/5.0 (Windows NT 10.0; Win64; x64) AppleWebKit/537.36 (KHTML, like Gecko) Chrome/133.0.0.0 Safari/537.36" version="26.1.0">
  <diagram name="Page-1" id="F1b4Rnfw-9Tyy2AcwFah">
    <mxGraphModel dx="880" dy="434" grid="1" gridSize="10" guides="1" tooltips="1" connect="1" arrows="1" fold="1" page="1" pageScale="1" pageWidth="827" pageHeight="1169" math="0" shadow="0">
      <root>
        <mxCell id="0" />
        <mxCell id="1" parent="0" />
        <mxCell id="BBPG0FEQW_lTevXBOY9m-1" value="" style="shape=table;startSize=0;container=1;collapsible=0;childLayout=tableLayout;" vertex="1" parent="1">
          <mxGeometry x="80" y="120" width="340" height="40" as="geometry" />
        </mxCell>
        <mxCell id="BBPG0FEQW_lTevXBOY9m-2" value="" style="shape=tableRow;horizontal=0;startSize=0;swimlaneHead=0;swimlaneBody=0;strokeColor=inherit;top=0;left=0;bottom=0;right=0;collapsible=0;dropTarget=0;fillColor=none;points=[[0,0.5],[1,0.5]];portConstraint=eastwest;" vertex="1" parent="BBPG0FEQW_lTevXBOY9m-1">
          <mxGeometry width="340" height="40" as="geometry" />
        </mxCell>
        <mxCell id="BBPG0FEQW_lTevXBOY9m-3" value="&lt;b&gt;&lt;i&gt;ID&lt;/i&gt;&lt;/b&gt;" style="shape=partialRectangle;html=1;whiteSpace=wrap;connectable=0;strokeColor=inherit;overflow=hidden;fillColor=none;top=0;left=0;bottom=0;right=0;pointerEvents=1;" vertex="1" parent="BBPG0FEQW_lTevXBOY9m-2">
          <mxGeometry width="60" height="40" as="geometry">
            <mxRectangle width="60" height="40" as="alternateBounds" />
          </mxGeometry>
        </mxCell>
        <mxCell id="BBPG0FEQW_lTevXBOY9m-4" value="&lt;b&gt;&lt;i&gt;Name&lt;/i&gt;&lt;/b&gt;" style="shape=partialRectangle;html=1;whiteSpace=wrap;connectable=0;strokeColor=inherit;overflow=hidden;fillColor=none;top=0;left=0;bottom=0;right=0;pointerEvents=1;" vertex="1" parent="BBPG0FEQW_lTevXBOY9m-2">
          <mxGeometry x="60" width="60" height="40" as="geometry">
            <mxRectangle width="60" height="40" as="alternateBounds" />
          </mxGeometry>
        </mxCell>
        <mxCell id="BBPG0FEQW_lTevXBOY9m-5" value="&lt;b&gt;&lt;i&gt;Phone&lt;/i&gt;&lt;/b&gt;" style="shape=partialRectangle;html=1;whiteSpace=wrap;connectable=0;strokeColor=inherit;overflow=hidden;fillColor=none;top=0;left=0;bottom=0;right=0;pointerEvents=1;" vertex="1" parent="BBPG0FEQW_lTevXBOY9m-2">
          <mxGeometry x="120" width="60" height="40" as="geometry">
            <mxRectangle width="60" height="40" as="alternateBounds" />
          </mxGeometry>
        </mxCell>
        <mxCell id="BBPG0FEQW_lTevXBOY9m-6" value="&lt;i&gt;&lt;b&gt;Address&lt;/b&gt;&lt;/i&gt;" style="shape=partialRectangle;html=1;whiteSpace=wrap;connectable=0;strokeColor=inherit;overflow=hidden;fillColor=none;top=0;left=0;bottom=0;right=0;pointerEvents=1;" vertex="1" parent="BBPG0FEQW_lTevXBOY9m-2">
          <mxGeometry x="180" width="60" height="40" as="geometry">
            <mxRectangle width="60" height="40" as="alternateBounds" />
          </mxGeometry>
        </mxCell>
        <mxCell id="BBPG0FEQW_lTevXBOY9m-7" value="&lt;b&gt;&lt;i&gt;Contact Person&lt;/i&gt;&lt;/b&gt;" style="shape=partialRectangle;html=1;whiteSpace=wrap;connectable=0;strokeColor=inherit;overflow=hidden;fillColor=none;top=0;left=0;bottom=0;right=0;pointerEvents=1;" vertex="1" parent="BBPG0FEQW_lTevXBOY9m-2">
          <mxGeometry x="240" width="100" height="40" as="geometry">
            <mxRectangle width="100" height="40" as="alternateBounds" />
          </mxGeometry>
        </mxCell>
        <mxCell id="BBPG0FEQW_lTevXBOY9m-8" value="&lt;b&gt;&lt;i&gt;Airline&lt;/i&gt;&lt;/b&gt;" style="text;strokeColor=none;align=center;fillColor=none;html=1;verticalAlign=middle;whiteSpace=wrap;rounded=0;" vertex="1" parent="1">
          <mxGeometry x="70" y="90" width="60" height="30" as="geometry" />
        </mxCell>
        <mxCell id="BBPG0FEQW_lTevXBOY9m-9" value="" style="shape=table;startSize=0;container=1;collapsible=0;childLayout=tableLayout;" vertex="1" parent="1">
          <mxGeometry x="80" y="281" width="340" height="40" as="geometry" />
        </mxCell>
        <mxCell id="BBPG0FEQW_lTevXBOY9m-10" value="" style="shape=tableRow;horizontal=0;startSize=0;swimlaneHead=0;swimlaneBody=0;strokeColor=inherit;top=0;left=0;bottom=0;right=0;collapsible=0;dropTarget=0;fillColor=none;points=[[0,0.5],[1,0.5]];portConstraint=eastwest;" vertex="1" parent="BBPG0FEQW_lTevXBOY9m-9">
          <mxGeometry width="340" height="40" as="geometry" />
        </mxCell>
        <mxCell id="BBPG0FEQW_lTevXBOY9m-11" value="&lt;b&gt;&lt;i&gt;ID&lt;/i&gt;&lt;/b&gt;" style="shape=partialRectangle;html=1;whiteSpace=wrap;connectable=0;strokeColor=inherit;overflow=hidden;fillColor=none;top=0;left=0;bottom=0;right=0;pointerEvents=1;" vertex="1" parent="BBPG0FEQW_lTevXBOY9m-10">
          <mxGeometry width="60" height="40" as="geometry">
            <mxRectangle width="60" height="40" as="alternateBounds" />
          </mxGeometry>
        </mxCell>
        <mxCell id="BBPG0FEQW_lTevXBOY9m-12" value="&lt;b&gt;&lt;i&gt;Name&lt;/i&gt;&lt;/b&gt;" style="shape=partialRectangle;html=1;whiteSpace=wrap;connectable=0;strokeColor=inherit;overflow=hidden;fillColor=none;top=0;left=0;bottom=0;right=0;pointerEvents=1;" vertex="1" parent="BBPG0FEQW_lTevXBOY9m-10">
          <mxGeometry x="60" width="60" height="40" as="geometry">
            <mxRectangle width="60" height="40" as="alternateBounds" />
          </mxGeometry>
        </mxCell>
        <mxCell id="BBPG0FEQW_lTevXBOY9m-13" value="&lt;b&gt;&lt;i&gt;Address&lt;/i&gt;&lt;/b&gt;" style="shape=partialRectangle;html=1;whiteSpace=wrap;connectable=0;strokeColor=inherit;overflow=hidden;fillColor=none;top=0;left=0;bottom=0;right=0;pointerEvents=1;" vertex="1" parent="BBPG0FEQW_lTevXBOY9m-10">
          <mxGeometry x="120" width="60" height="40" as="geometry">
            <mxRectangle width="60" height="40" as="alternateBounds" />
          </mxGeometry>
        </mxCell>
        <mxCell id="BBPG0FEQW_lTevXBOY9m-14" value="&lt;i&gt;&lt;b&gt;Day&lt;/b&gt;&lt;/i&gt;" style="shape=partialRectangle;html=1;whiteSpace=wrap;connectable=0;strokeColor=inherit;overflow=hidden;fillColor=none;top=0;left=0;bottom=0;right=0;pointerEvents=1;" vertex="1" parent="BBPG0FEQW_lTevXBOY9m-10">
          <mxGeometry x="180" width="60" height="40" as="geometry">
            <mxRectangle width="60" height="40" as="alternateBounds" />
          </mxGeometry>
        </mxCell>
        <mxCell id="BBPG0FEQW_lTevXBOY9m-15" value="&lt;b&gt;&lt;i&gt;Month&lt;/i&gt;&lt;/b&gt;" style="shape=partialRectangle;html=1;whiteSpace=wrap;connectable=0;strokeColor=inherit;overflow=hidden;fillColor=none;top=0;left=0;bottom=0;right=0;pointerEvents=1;" vertex="1" parent="BBPG0FEQW_lTevXBOY9m-10">
          <mxGeometry x="240" width="100" height="40" as="geometry">
            <mxRectangle width="100" height="40" as="alternateBounds" />
          </mxGeometry>
        </mxCell>
        <mxCell id="BBPG0FEQW_lTevXBOY9m-16" value="&lt;b&gt;&lt;i&gt;Employee&lt;/i&gt;&lt;/b&gt;" style="text;strokeColor=none;align=center;fillColor=none;html=1;verticalAlign=middle;whiteSpace=wrap;rounded=0;" vertex="1" parent="1">
          <mxGeometry x="80" y="250" width="60" height="30" as="geometry" />
        </mxCell>
        <mxCell id="BBPG0FEQW_lTevXBOY9m-22" value="" style="shape=table;startSize=0;container=1;collapsible=0;childLayout=tableLayout;" vertex="1" parent="1">
          <mxGeometry x="420" y="281" width="180" height="40" as="geometry" />
        </mxCell>
        <mxCell id="BBPG0FEQW_lTevXBOY9m-23" value="" style="shape=tableRow;horizontal=0;startSize=0;swimlaneHead=0;swimlaneBody=0;strokeColor=inherit;top=0;left=0;bottom=0;right=0;collapsible=0;dropTarget=0;fillColor=none;points=[[0,0.5],[1,0.5]];portConstraint=eastwest;" vertex="1" parent="BBPG0FEQW_lTevXBOY9m-22">
          <mxGeometry width="180" height="40" as="geometry" />
        </mxCell>
        <mxCell id="BBPG0FEQW_lTevXBOY9m-24" value="&lt;b&gt;&lt;i&gt;Year&lt;/i&gt;&lt;/b&gt;" style="shape=partialRectangle;html=1;whiteSpace=wrap;connectable=0;strokeColor=inherit;overflow=hidden;fillColor=none;top=0;left=0;bottom=0;right=0;pointerEvents=1;" vertex="1" parent="BBPG0FEQW_lTevXBOY9m-23">
          <mxGeometry width="60" height="40" as="geometry">
            <mxRectangle width="60" height="40" as="alternateBounds" />
          </mxGeometry>
        </mxCell>
        <mxCell id="BBPG0FEQW_lTevXBOY9m-25" value="&lt;b&gt;&lt;i&gt;Gender&lt;/i&gt;&lt;/b&gt;" style="shape=partialRectangle;html=1;whiteSpace=wrap;connectable=0;strokeColor=inherit;overflow=hidden;fillColor=none;top=0;left=0;bottom=0;right=0;pointerEvents=1;" vertex="1" parent="BBPG0FEQW_lTevXBOY9m-23">
          <mxGeometry x="60" width="60" height="40" as="geometry">
            <mxRectangle width="60" height="40" as="alternateBounds" />
          </mxGeometry>
        </mxCell>
        <mxCell id="BBPG0FEQW_lTevXBOY9m-26" value="&lt;b&gt;&lt;i&gt;Position&lt;/i&gt;&lt;/b&gt;" style="shape=partialRectangle;html=1;whiteSpace=wrap;connectable=0;strokeColor=inherit;overflow=hidden;fillColor=none;top=0;left=0;bottom=0;right=0;pointerEvents=1;" vertex="1" parent="BBPG0FEQW_lTevXBOY9m-23">
          <mxGeometry x="120" width="60" height="40" as="geometry">
            <mxRectangle width="60" height="40" as="alternateBounds" />
          </mxGeometry>
        </mxCell>
        <mxCell id="BBPG0FEQW_lTevXBOY9m-27" value="&lt;b&gt;&lt;i&gt;Transaction&lt;/i&gt;&lt;/b&gt;" style="text;strokeColor=none;align=center;fillColor=none;html=1;verticalAlign=middle;whiteSpace=wrap;rounded=0;" vertex="1" parent="1">
          <mxGeometry x="80" y="414" width="60" height="30" as="geometry" />
        </mxCell>
        <mxCell id="BBPG0FEQW_lTevXBOY9m-28" value="" style="shape=table;startSize=0;container=1;collapsible=0;childLayout=tableLayout;" vertex="1" parent="1">
          <mxGeometry x="80" y="444" width="260" height="40" as="geometry" />
        </mxCell>
        <mxCell id="BBPG0FEQW_lTevXBOY9m-29" value="" style="shape=tableRow;horizontal=0;startSize=0;swimlaneHead=0;swimlaneBody=0;strokeColor=inherit;top=0;left=0;bottom=0;right=0;collapsible=0;dropTarget=0;fillColor=none;points=[[0,0.5],[1,0.5]];portConstraint=eastwest;" vertex="1" parent="BBPG0FEQW_lTevXBOY9m-28">
          <mxGeometry width="260" height="40" as="geometry" />
        </mxCell>
        <mxCell id="BBPG0FEQW_lTevXBOY9m-30" value="&lt;b&gt;&lt;i&gt;ID&lt;/i&gt;&lt;/b&gt;" style="shape=partialRectangle;html=1;whiteSpace=wrap;connectable=0;strokeColor=inherit;overflow=hidden;fillColor=none;top=0;left=0;bottom=0;right=0;pointerEvents=1;" vertex="1" parent="BBPG0FEQW_lTevXBOY9m-29">
          <mxGeometry width="60" height="40" as="geometry">
            <mxRectangle width="60" height="40" as="alternateBounds" />
          </mxGeometry>
        </mxCell>
        <mxCell id="BBPG0FEQW_lTevXBOY9m-31" value="&lt;b&gt;&lt;i&gt;Date&lt;/i&gt;&lt;/b&gt;" style="shape=partialRectangle;html=1;whiteSpace=wrap;connectable=0;strokeColor=inherit;overflow=hidden;fillColor=none;top=0;left=0;bottom=0;right=0;pointerEvents=1;" vertex="1" parent="BBPG0FEQW_lTevXBOY9m-29">
          <mxGeometry x="60" width="60" height="40" as="geometry">
            <mxRectangle width="60" height="40" as="alternateBounds" />
          </mxGeometry>
        </mxCell>
        <mxCell id="BBPG0FEQW_lTevXBOY9m-32" value="&lt;b&gt;&lt;i&gt;Amount&lt;/i&gt;&lt;/b&gt;" style="shape=partialRectangle;html=1;whiteSpace=wrap;connectable=0;strokeColor=inherit;overflow=hidden;fillColor=none;top=0;left=0;bottom=0;right=0;pointerEvents=1;" vertex="1" parent="BBPG0FEQW_lTevXBOY9m-29">
          <mxGeometry x="120" width="60" height="40" as="geometry">
            <mxRectangle width="60" height="40" as="alternateBounds" />
          </mxGeometry>
        </mxCell>
        <mxCell id="BBPG0FEQW_lTevXBOY9m-33" value="&lt;b&gt;&lt;i&gt;Description&lt;/i&gt;&lt;/b&gt;" style="shape=partialRectangle;html=1;whiteSpace=wrap;connectable=0;strokeColor=inherit;overflow=hidden;fillColor=none;top=0;left=0;bottom=0;right=0;pointerEvents=1;" vertex="1" parent="BBPG0FEQW_lTevXBOY9m-29">
          <mxGeometry x="180" width="80" height="40" as="geometry">
            <mxRectangle width="80" height="40" as="alternateBounds" />
          </mxGeometry>
        </mxCell>
        <mxCell id="BBPG0FEQW_lTevXBOY9m-34" value="&lt;b&gt;&lt;i&gt;AirCraft&lt;/i&gt;&lt;/b&gt;" style="text;strokeColor=none;align=center;fillColor=none;html=1;verticalAlign=middle;whiteSpace=wrap;rounded=0;" vertex="1" parent="1">
          <mxGeometry x="70" y="494" width="60" height="30" as="geometry" />
        </mxCell>
        <mxCell id="BBPG0FEQW_lTevXBOY9m-35" value="" style="shape=table;startSize=0;container=1;collapsible=0;childLayout=tableLayout;" vertex="1" parent="1">
          <mxGeometry x="79" y="521" width="180" height="40" as="geometry" />
        </mxCell>
        <mxCell id="BBPG0FEQW_lTevXBOY9m-36" value="" style="shape=tableRow;horizontal=0;startSize=0;swimlaneHead=0;swimlaneBody=0;strokeColor=inherit;top=0;left=0;bottom=0;right=0;collapsible=0;dropTarget=0;fillColor=none;points=[[0,0.5],[1,0.5]];portConstraint=eastwest;" vertex="1" parent="BBPG0FEQW_lTevXBOY9m-35">
          <mxGeometry width="180" height="40" as="geometry" />
        </mxCell>
        <mxCell id="BBPG0FEQW_lTevXBOY9m-37" value="&lt;b&gt;&lt;i&gt;ID&lt;/i&gt;&lt;/b&gt;" style="shape=partialRectangle;html=1;whiteSpace=wrap;connectable=0;strokeColor=inherit;overflow=hidden;fillColor=none;top=0;left=0;bottom=0;right=0;pointerEvents=1;" vertex="1" parent="BBPG0FEQW_lTevXBOY9m-36">
          <mxGeometry width="60" height="40" as="geometry">
            <mxRectangle width="60" height="40" as="alternateBounds" />
          </mxGeometry>
        </mxCell>
        <mxCell id="BBPG0FEQW_lTevXBOY9m-38" value="&lt;b&gt;&lt;i&gt;Model&lt;/i&gt;&lt;/b&gt;" style="shape=partialRectangle;html=1;whiteSpace=wrap;connectable=0;strokeColor=inherit;overflow=hidden;fillColor=none;top=0;left=0;bottom=0;right=0;pointerEvents=1;" vertex="1" parent="BBPG0FEQW_lTevXBOY9m-36">
          <mxGeometry x="60" width="60" height="40" as="geometry">
            <mxRectangle width="60" height="40" as="alternateBounds" />
          </mxGeometry>
        </mxCell>
        <mxCell id="BBPG0FEQW_lTevXBOY9m-39" value="&lt;b&gt;&lt;i&gt;Capacity&lt;/i&gt;&lt;/b&gt;" style="shape=partialRectangle;html=1;whiteSpace=wrap;connectable=0;strokeColor=inherit;overflow=hidden;fillColor=none;top=0;left=0;bottom=0;right=0;pointerEvents=1;" vertex="1" parent="BBPG0FEQW_lTevXBOY9m-36">
          <mxGeometry x="120" width="60" height="40" as="geometry">
            <mxRectangle width="60" height="40" as="alternateBounds" />
          </mxGeometry>
        </mxCell>
        <mxCell id="BBPG0FEQW_lTevXBOY9m-47" value="" style="shape=table;startSize=0;container=1;collapsible=0;childLayout=tableLayout;" vertex="1" parent="1">
          <mxGeometry x="319" y="521" width="260" height="40" as="geometry" />
        </mxCell>
        <mxCell id="BBPG0FEQW_lTevXBOY9m-48" value="" style="shape=tableRow;horizontal=0;startSize=0;swimlaneHead=0;swimlaneBody=0;strokeColor=inherit;top=0;left=0;bottom=0;right=0;collapsible=0;dropTarget=0;fillColor=none;points=[[0,0.5],[1,0.5]];portConstraint=eastwest;" vertex="1" parent="BBPG0FEQW_lTevXBOY9m-47">
          <mxGeometry width="260" height="40" as="geometry" />
        </mxCell>
        <mxCell id="BBPG0FEQW_lTevXBOY9m-49" value="&lt;b&gt;&lt;i&gt;Host1&lt;/i&gt;&lt;/b&gt;" style="shape=partialRectangle;html=1;whiteSpace=wrap;connectable=0;strokeColor=inherit;overflow=hidden;fillColor=none;top=0;left=0;bottom=0;right=0;pointerEvents=1;" vertex="1" parent="BBPG0FEQW_lTevXBOY9m-48">
          <mxGeometry width="60" height="40" as="geometry">
            <mxRectangle width="60" height="40" as="alternateBounds" />
          </mxGeometry>
        </mxCell>
        <mxCell id="BBPG0FEQW_lTevXBOY9m-50" value="&lt;b&gt;&lt;i&gt;Host2&lt;/i&gt;&lt;/b&gt;" style="shape=partialRectangle;html=1;whiteSpace=wrap;connectable=0;strokeColor=inherit;overflow=hidden;fillColor=none;top=0;left=0;bottom=0;right=0;pointerEvents=1;" vertex="1" parent="BBPG0FEQW_lTevXBOY9m-48">
          <mxGeometry x="60" width="60" height="40" as="geometry">
            <mxRectangle width="60" height="40" as="alternateBounds" />
          </mxGeometry>
        </mxCell>
        <mxCell id="BBPG0FEQW_lTevXBOY9m-51" value="&lt;b&gt;&lt;i&gt;Assi Pilot&lt;/i&gt;&lt;/b&gt;" style="shape=partialRectangle;html=1;whiteSpace=wrap;connectable=0;strokeColor=inherit;overflow=hidden;fillColor=none;top=0;left=0;bottom=0;right=0;pointerEvents=1;" vertex="1" parent="BBPG0FEQW_lTevXBOY9m-48">
          <mxGeometry x="120" width="70" height="40" as="geometry">
            <mxRectangle width="70" height="40" as="alternateBounds" />
          </mxGeometry>
        </mxCell>
        <mxCell id="BBPG0FEQW_lTevXBOY9m-52" value="&lt;b&gt;&lt;i&gt;Maj Pilot&lt;/i&gt;&lt;/b&gt;" style="shape=partialRectangle;html=1;whiteSpace=wrap;connectable=0;strokeColor=inherit;overflow=hidden;fillColor=none;top=0;left=0;bottom=0;right=0;pointerEvents=1;" vertex="1" parent="BBPG0FEQW_lTevXBOY9m-48">
          <mxGeometry x="190" width="70" height="40" as="geometry">
            <mxRectangle width="70" height="40" as="alternateBounds" />
          </mxGeometry>
        </mxCell>
        <mxCell id="BBPG0FEQW_lTevXBOY9m-53" value="&lt;b&gt;&lt;i&gt;Route&lt;/i&gt;&lt;/b&gt;" style="text;strokeColor=none;align=center;fillColor=none;html=1;verticalAlign=middle;whiteSpace=wrap;rounded=0;" vertex="1" parent="1">
          <mxGeometry x="67" y="651" width="60" height="30" as="geometry" />
        </mxCell>
        <mxCell id="BBPG0FEQW_lTevXBOY9m-54" value="" style="shape=table;startSize=0;container=1;collapsible=0;childLayout=tableLayout;" vertex="1" parent="1">
          <mxGeometry x="79" y="681" width="340" height="40" as="geometry" />
        </mxCell>
        <mxCell id="BBPG0FEQW_lTevXBOY9m-55" value="" style="shape=tableRow;horizontal=0;startSize=0;swimlaneHead=0;swimlaneBody=0;strokeColor=inherit;top=0;left=0;bottom=0;right=0;collapsible=0;dropTarget=0;fillColor=none;points=[[0,0.5],[1,0.5]];portConstraint=eastwest;" vertex="1" parent="BBPG0FEQW_lTevXBOY9m-54">
          <mxGeometry width="340" height="40" as="geometry" />
        </mxCell>
        <mxCell id="BBPG0FEQW_lTevXBOY9m-56" value="&lt;b&gt;&lt;i&gt;ID&lt;/i&gt;&lt;/b&gt;" style="shape=partialRectangle;html=1;whiteSpace=wrap;connectable=0;strokeColor=inherit;overflow=hidden;fillColor=none;top=0;left=0;bottom=0;right=0;pointerEvents=1;" vertex="1" parent="BBPG0FEQW_lTevXBOY9m-55">
          <mxGeometry width="60" height="40" as="geometry">
            <mxRectangle width="60" height="40" as="alternateBounds" />
          </mxGeometry>
        </mxCell>
        <mxCell id="BBPG0FEQW_lTevXBOY9m-57" value="&lt;b&gt;&lt;i&gt;Orgin&lt;/i&gt;&lt;/b&gt;" style="shape=partialRectangle;html=1;whiteSpace=wrap;connectable=0;strokeColor=inherit;overflow=hidden;fillColor=none;top=0;left=0;bottom=0;right=0;pointerEvents=1;" vertex="1" parent="BBPG0FEQW_lTevXBOY9m-55">
          <mxGeometry x="60" width="60" height="40" as="geometry">
            <mxRectangle width="60" height="40" as="alternateBounds" />
          </mxGeometry>
        </mxCell>
        <mxCell id="BBPG0FEQW_lTevXBOY9m-58" value="&lt;b&gt;&lt;i&gt;Destination&lt;/i&gt;&lt;/b&gt;" style="shape=partialRectangle;html=1;whiteSpace=wrap;connectable=0;strokeColor=inherit;overflow=hidden;fillColor=none;top=0;left=0;bottom=0;right=0;pointerEvents=1;" vertex="1" parent="BBPG0FEQW_lTevXBOY9m-55">
          <mxGeometry x="120" width="71" height="40" as="geometry">
            <mxRectangle width="71" height="40" as="alternateBounds" />
          </mxGeometry>
        </mxCell>
        <mxCell id="BBPG0FEQW_lTevXBOY9m-59" value="&lt;i&gt;&lt;b&gt;Distance&lt;/b&gt;&lt;/i&gt;" style="shape=partialRectangle;html=1;whiteSpace=wrap;connectable=0;strokeColor=inherit;overflow=hidden;fillColor=none;top=0;left=0;bottom=0;right=0;pointerEvents=1;" vertex="1" parent="BBPG0FEQW_lTevXBOY9m-55">
          <mxGeometry x="191" width="60" height="40" as="geometry">
            <mxRectangle width="60" height="40" as="alternateBounds" />
          </mxGeometry>
        </mxCell>
        <mxCell id="BBPG0FEQW_lTevXBOY9m-60" value="&lt;b&gt;&lt;i&gt;Classification&lt;/i&gt;&lt;/b&gt;" style="shape=partialRectangle;html=1;whiteSpace=wrap;connectable=0;strokeColor=inherit;overflow=hidden;fillColor=none;top=0;left=0;bottom=0;right=0;pointerEvents=1;" vertex="1" parent="BBPG0FEQW_lTevXBOY9m-55">
          <mxGeometry x="251" width="89" height="40" as="geometry">
            <mxRectangle width="89" height="40" as="alternateBounds" />
          </mxGeometry>
        </mxCell>
        <mxCell id="BBPG0FEQW_lTevXBOY9m-61" value="&lt;b&gt;&lt;i&gt;Employee Qualifications&lt;/i&gt;&lt;/b&gt;" style="text;strokeColor=none;align=center;fillColor=none;html=1;verticalAlign=middle;whiteSpace=wrap;rounded=0;" vertex="1" parent="1">
          <mxGeometry x="74" y="333" width="151" height="30" as="geometry" />
        </mxCell>
        <mxCell id="BBPG0FEQW_lTevXBOY9m-62" value="" style="shape=table;startSize=0;container=1;collapsible=0;childLayout=tableLayout;" vertex="1" parent="1">
          <mxGeometry x="79" y="363" width="151" height="50" as="geometry" />
        </mxCell>
        <mxCell id="BBPG0FEQW_lTevXBOY9m-63" value="" style="shape=tableRow;horizontal=0;startSize=0;swimlaneHead=0;swimlaneBody=0;strokeColor=inherit;top=0;left=0;bottom=0;right=0;collapsible=0;dropTarget=0;fillColor=none;points=[[0,0.5],[1,0.5]];portConstraint=eastwest;" vertex="1" parent="BBPG0FEQW_lTevXBOY9m-62">
          <mxGeometry width="151" height="50" as="geometry" />
        </mxCell>
        <mxCell id="BBPG0FEQW_lTevXBOY9m-64" value="&lt;b&gt;&lt;i&gt;Emp ID&lt;/i&gt;&lt;/b&gt;" style="shape=partialRectangle;html=1;whiteSpace=wrap;connectable=0;strokeColor=inherit;overflow=hidden;fillColor=none;top=0;left=0;bottom=0;right=0;pointerEvents=1;" vertex="1" parent="BBPG0FEQW_lTevXBOY9m-63">
          <mxGeometry width="60" height="50" as="geometry">
            <mxRectangle width="60" height="50" as="alternateBounds" />
          </mxGeometry>
        </mxCell>
        <mxCell id="BBPG0FEQW_lTevXBOY9m-65" value="&lt;b&gt;&lt;i&gt;Qualifications&lt;/i&gt;&lt;/b&gt;" style="shape=partialRectangle;html=1;whiteSpace=wrap;connectable=0;strokeColor=inherit;overflow=hidden;fillColor=none;top=0;left=0;bottom=0;right=0;pointerEvents=1;" vertex="1" parent="BBPG0FEQW_lTevXBOY9m-63">
          <mxGeometry x="60" width="91" height="50" as="geometry">
            <mxRectangle width="91" height="50" as="alternateBounds" />
          </mxGeometry>
        </mxCell>
        <mxCell id="BBPG0FEQW_lTevXBOY9m-79" value="" style="endArrow=none;dashed=1;html=1;dashPattern=1 3;strokeWidth=2;rounded=0;" edge="1" parent="1">
          <mxGeometry width="50" height="50" relative="1" as="geometry">
            <mxPoint x="85" y="398" as="sourcePoint" />
            <mxPoint x="135" y="398" as="targetPoint" />
          </mxGeometry>
        </mxCell>
        <mxCell id="BBPG0FEQW_lTevXBOY9m-81" value="" style="endArrow=none;html=1;rounded=0;" edge="1" parent="1">
          <mxGeometry width="50" height="50" relative="1" as="geometry">
            <mxPoint x="94.5" y="403" as="sourcePoint" />
            <mxPoint x="214.5" y="403" as="targetPoint" />
          </mxGeometry>
        </mxCell>
        <mxCell id="BBPG0FEQW_lTevXBOY9m-82" value="&lt;b&gt;&lt;i&gt;Airline Phones&lt;/i&gt;&lt;/b&gt;" style="text;strokeColor=none;align=center;fillColor=none;html=1;verticalAlign=middle;whiteSpace=wrap;rounded=0;" vertex="1" parent="1">
          <mxGeometry x="78" y="174" width="90" height="30" as="geometry" />
        </mxCell>
        <mxCell id="BBPG0FEQW_lTevXBOY9m-83" value="" style="shape=table;startSize=0;container=1;collapsible=0;childLayout=tableLayout;" vertex="1" parent="1">
          <mxGeometry x="80" y="200" width="120" height="50" as="geometry" />
        </mxCell>
        <mxCell id="BBPG0FEQW_lTevXBOY9m-84" value="" style="shape=tableRow;horizontal=0;startSize=0;swimlaneHead=0;swimlaneBody=0;strokeColor=inherit;top=0;left=0;bottom=0;right=0;collapsible=0;dropTarget=0;fillColor=none;points=[[0,0.5],[1,0.5]];portConstraint=eastwest;" vertex="1" parent="BBPG0FEQW_lTevXBOY9m-83">
          <mxGeometry width="120" height="50" as="geometry" />
        </mxCell>
        <mxCell id="BBPG0FEQW_lTevXBOY9m-85" value="&lt;b&gt;&lt;i&gt;Airline ID&lt;/i&gt;&lt;/b&gt;" style="shape=partialRectangle;html=1;whiteSpace=wrap;connectable=0;strokeColor=inherit;overflow=hidden;fillColor=none;top=0;left=0;bottom=0;right=0;pointerEvents=1;" vertex="1" parent="BBPG0FEQW_lTevXBOY9m-84">
          <mxGeometry width="60" height="50" as="geometry">
            <mxRectangle width="60" height="50" as="alternateBounds" />
          </mxGeometry>
        </mxCell>
        <mxCell id="BBPG0FEQW_lTevXBOY9m-86" value="&lt;b&gt;&lt;i&gt;Phones&lt;/i&gt;&lt;/b&gt;" style="shape=partialRectangle;html=1;whiteSpace=wrap;connectable=0;strokeColor=inherit;overflow=hidden;fillColor=none;top=0;left=0;bottom=0;right=0;pointerEvents=1;" vertex="1" parent="BBPG0FEQW_lTevXBOY9m-84">
          <mxGeometry x="60" width="60" height="50" as="geometry">
            <mxRectangle width="60" height="50" as="alternateBounds" />
          </mxGeometry>
        </mxCell>
        <mxCell id="BBPG0FEQW_lTevXBOY9m-88" value="" style="endArrow=none;dashed=1;html=1;rounded=0;" edge="1" parent="1">
          <mxGeometry width="50" height="50" relative="1" as="geometry">
            <mxPoint x="85" y="230" as="sourcePoint" />
            <mxPoint x="135" y="230" as="targetPoint" />
          </mxGeometry>
        </mxCell>
        <mxCell id="BBPG0FEQW_lTevXBOY9m-89" value="" style="endArrow=none;html=1;rounded=0;" edge="1" parent="1">
          <mxGeometry width="50" height="50" relative="1" as="geometry">
            <mxPoint x="90" y="240" as="sourcePoint" />
            <mxPoint x="190" y="240" as="targetPoint" />
          </mxGeometry>
        </mxCell>
        <mxCell id="BBPG0FEQW_lTevXBOY9m-90" value="" style="shape=table;startSize=0;container=1;collapsible=0;childLayout=tableLayout;" vertex="1" parent="1">
          <mxGeometry x="600" y="281" width="70" height="40" as="geometry" />
        </mxCell>
        <mxCell id="BBPG0FEQW_lTevXBOY9m-91" value="" style="shape=tableRow;horizontal=0;startSize=0;swimlaneHead=0;swimlaneBody=0;strokeColor=inherit;top=0;left=0;bottom=0;right=0;collapsible=0;dropTarget=0;fillColor=none;points=[[0,0.5],[1,0.5]];portConstraint=eastwest;" vertex="1" parent="BBPG0FEQW_lTevXBOY9m-90">
          <mxGeometry width="70" height="40" as="geometry" />
        </mxCell>
        <mxCell id="BBPG0FEQW_lTevXBOY9m-92" value="&lt;b&gt;&lt;i&gt;Airline ID&lt;/i&gt;&lt;/b&gt;" style="shape=partialRectangle;html=1;whiteSpace=wrap;connectable=0;strokeColor=inherit;overflow=hidden;fillColor=none;top=0;left=0;bottom=0;right=0;pointerEvents=1;" vertex="1" parent="BBPG0FEQW_lTevXBOY9m-91">
          <mxGeometry width="70" height="40" as="geometry">
            <mxRectangle width="70" height="40" as="alternateBounds" />
          </mxGeometry>
        </mxCell>
        <mxCell id="BBPG0FEQW_lTevXBOY9m-93" value="" style="endArrow=none;dashed=1;html=1;rounded=0;" edge="1" parent="1">
          <mxGeometry width="50" height="50" relative="1" as="geometry">
            <mxPoint x="610" y="313" as="sourcePoint" />
            <mxPoint x="660" y="313" as="targetPoint" />
          </mxGeometry>
        </mxCell>
        <mxCell id="BBPG0FEQW_lTevXBOY9m-94" style="edgeStyle=orthogonalEdgeStyle;rounded=0;orthogonalLoop=1;jettySize=auto;html=1;exitX=0;exitY=0.5;exitDx=0;exitDy=0;entryX=0;entryY=0.325;entryDx=0;entryDy=0;entryPerimeter=0;" edge="1" parent="1" source="BBPG0FEQW_lTevXBOY9m-10" target="BBPG0FEQW_lTevXBOY9m-2">
          <mxGeometry relative="1" as="geometry">
            <Array as="points">
              <mxPoint x="40" y="301" />
              <mxPoint x="40" y="133" />
            </Array>
          </mxGeometry>
        </mxCell>
        <mxCell id="BBPG0FEQW_lTevXBOY9m-95" style="edgeStyle=orthogonalEdgeStyle;rounded=0;orthogonalLoop=1;jettySize=auto;html=1;exitX=0;exitY=0.5;exitDx=0;exitDy=0;entryX=-0.003;entryY=0.775;entryDx=0;entryDy=0;entryPerimeter=0;" edge="1" parent="1" source="BBPG0FEQW_lTevXBOY9m-84" target="BBPG0FEQW_lTevXBOY9m-2">
          <mxGeometry relative="1" as="geometry" />
        </mxCell>
        <mxCell id="BBPG0FEQW_lTevXBOY9m-96" style="edgeStyle=orthogonalEdgeStyle;rounded=0;orthogonalLoop=1;jettySize=auto;html=1;exitX=0;exitY=0.5;exitDx=0;exitDy=0;entryX=0.009;entryY=0.225;entryDx=0;entryDy=0;entryPerimeter=0;" edge="1" parent="1" source="BBPG0FEQW_lTevXBOY9m-63" target="BBPG0FEQW_lTevXBOY9m-10">
          <mxGeometry relative="1" as="geometry" />
        </mxCell>
        <mxCell id="BBPG0FEQW_lTevXBOY9m-97" value="" style="shape=table;startSize=0;container=1;collapsible=0;childLayout=tableLayout;" vertex="1" parent="1">
          <mxGeometry x="340" y="444" width="60" height="40" as="geometry" />
        </mxCell>
        <mxCell id="BBPG0FEQW_lTevXBOY9m-98" value="" style="shape=tableRow;horizontal=0;startSize=0;swimlaneHead=0;swimlaneBody=0;strokeColor=inherit;top=0;left=0;bottom=0;right=0;collapsible=0;dropTarget=0;fillColor=none;points=[[0,0.5],[1,0.5]];portConstraint=eastwest;" vertex="1" parent="BBPG0FEQW_lTevXBOY9m-97">
          <mxGeometry width="60" height="40" as="geometry" />
        </mxCell>
        <mxCell id="BBPG0FEQW_lTevXBOY9m-99" value="&lt;b&gt;&lt;i&gt;Airline ID&lt;/i&gt;&lt;/b&gt;" style="shape=partialRectangle;html=1;whiteSpace=wrap;connectable=0;strokeColor=inherit;overflow=hidden;fillColor=none;top=0;left=0;bottom=0;right=0;pointerEvents=1;" vertex="1" parent="BBPG0FEQW_lTevXBOY9m-98">
          <mxGeometry width="60" height="40" as="geometry">
            <mxRectangle width="60" height="40" as="alternateBounds" />
          </mxGeometry>
        </mxCell>
        <mxCell id="BBPG0FEQW_lTevXBOY9m-100" value="" style="endArrow=none;dashed=1;html=1;rounded=0;" edge="1" parent="1">
          <mxGeometry width="50" height="50" relative="1" as="geometry">
            <mxPoint x="350" y="475" as="sourcePoint" />
            <mxPoint x="390" y="475" as="targetPoint" />
          </mxGeometry>
        </mxCell>
        <mxCell id="BBPG0FEQW_lTevXBOY9m-101" style="edgeStyle=orthogonalEdgeStyle;rounded=0;orthogonalLoop=1;jettySize=auto;html=1;exitX=1;exitY=0.5;exitDx=0;exitDy=0;entryX=1;entryY=0.5;entryDx=0;entryDy=0;" edge="1" parent="1" source="BBPG0FEQW_lTevXBOY9m-98" target="BBPG0FEQW_lTevXBOY9m-2">
          <mxGeometry relative="1" as="geometry">
            <Array as="points">
              <mxPoint x="690" y="464" />
              <mxPoint x="690" y="140" />
            </Array>
          </mxGeometry>
        </mxCell>
        <mxCell id="BBPG0FEQW_lTevXBOY9m-102" value="" style="shape=table;startSize=0;container=1;collapsible=0;childLayout=tableLayout;" vertex="1" parent="1">
          <mxGeometry x="259" y="521" width="60" height="40" as="geometry" />
        </mxCell>
        <mxCell id="BBPG0FEQW_lTevXBOY9m-103" value="" style="shape=tableRow;horizontal=0;startSize=0;swimlaneHead=0;swimlaneBody=0;strokeColor=inherit;top=0;left=0;bottom=0;right=0;collapsible=0;dropTarget=0;fillColor=none;points=[[0,0.5],[1,0.5]];portConstraint=eastwest;" vertex="1" parent="BBPG0FEQW_lTevXBOY9m-102">
          <mxGeometry width="60" height="40" as="geometry" />
        </mxCell>
        <mxCell id="BBPG0FEQW_lTevXBOY9m-104" value="&lt;b&gt;&lt;i&gt;Airline ID&lt;/i&gt;&lt;/b&gt;" style="shape=partialRectangle;html=1;whiteSpace=wrap;connectable=0;strokeColor=inherit;overflow=hidden;fillColor=none;top=0;left=0;bottom=0;right=0;pointerEvents=1;" vertex="1" parent="BBPG0FEQW_lTevXBOY9m-103">
          <mxGeometry width="60" height="40" as="geometry">
            <mxRectangle width="60" height="40" as="alternateBounds" />
          </mxGeometry>
        </mxCell>
        <mxCell id="BBPG0FEQW_lTevXBOY9m-105" value="" style="endArrow=none;dashed=1;html=1;rounded=0;" edge="1" parent="1">
          <mxGeometry width="50" height="50" relative="1" as="geometry">
            <mxPoint x="264" y="551" as="sourcePoint" />
            <mxPoint x="314" y="550" as="targetPoint" />
          </mxGeometry>
        </mxCell>
        <mxCell id="BBPG0FEQW_lTevXBOY9m-107" style="edgeStyle=orthogonalEdgeStyle;rounded=0;orthogonalLoop=1;jettySize=auto;html=1;exitX=1;exitY=0.5;exitDx=0;exitDy=0;entryX=1;entryY=0.825;entryDx=0;entryDy=0;entryPerimeter=0;" edge="1" parent="1" source="BBPG0FEQW_lTevXBOY9m-48" target="BBPG0FEQW_lTevXBOY9m-2">
          <mxGeometry relative="1" as="geometry">
            <Array as="points">
              <mxPoint x="730" y="541" />
              <mxPoint x="730" y="153" />
            </Array>
          </mxGeometry>
        </mxCell>
        <mxCell id="BBPG0FEQW_lTevXBOY9m-108" value="&lt;b&gt;&lt;i&gt;AirCraft Route&lt;/i&gt;&lt;/b&gt;" style="text;strokeColor=none;align=center;fillColor=none;html=1;verticalAlign=middle;whiteSpace=wrap;rounded=0;" vertex="1" parent="1">
          <mxGeometry x="78" y="573" width="86" height="30" as="geometry" />
        </mxCell>
        <mxCell id="BBPG0FEQW_lTevXBOY9m-109" value="" style="shape=table;startSize=0;container=1;collapsible=0;childLayout=tableLayout;" vertex="1" parent="1">
          <mxGeometry x="80" y="600" width="440" height="50" as="geometry" />
        </mxCell>
        <mxCell id="BBPG0FEQW_lTevXBOY9m-110" value="" style="shape=tableRow;horizontal=0;startSize=0;swimlaneHead=0;swimlaneBody=0;strokeColor=inherit;top=0;left=0;bottom=0;right=0;collapsible=0;dropTarget=0;fillColor=none;points=[[0,0.5],[1,0.5]];portConstraint=eastwest;" vertex="1" parent="BBPG0FEQW_lTevXBOY9m-109">
          <mxGeometry width="440" height="50" as="geometry" />
        </mxCell>
        <mxCell id="BBPG0FEQW_lTevXBOY9m-111" value="&lt;b&gt;&lt;i&gt;AirCraft ID&lt;/i&gt;&lt;/b&gt;" style="shape=partialRectangle;html=1;whiteSpace=wrap;connectable=0;strokeColor=inherit;overflow=hidden;fillColor=none;top=0;left=0;bottom=0;right=0;pointerEvents=1;" vertex="1" parent="BBPG0FEQW_lTevXBOY9m-110">
          <mxGeometry width="70" height="50" as="geometry">
            <mxRectangle width="70" height="50" as="alternateBounds" />
          </mxGeometry>
        </mxCell>
        <mxCell id="BBPG0FEQW_lTevXBOY9m-112" value="&lt;b&gt;&lt;i&gt;Route ID&lt;/i&gt;&lt;/b&gt;" style="shape=partialRectangle;html=1;whiteSpace=wrap;connectable=0;strokeColor=inherit;overflow=hidden;fillColor=none;top=0;left=0;bottom=0;right=0;pointerEvents=1;" vertex="1" parent="BBPG0FEQW_lTevXBOY9m-110">
          <mxGeometry x="70" width="60" height="50" as="geometry">
            <mxRectangle width="60" height="50" as="alternateBounds" />
          </mxGeometry>
        </mxCell>
        <mxCell id="BBPG0FEQW_lTevXBOY9m-113" value="&lt;b&gt;&lt;i&gt;Price&lt;/i&gt;&lt;/b&gt;" style="shape=partialRectangle;html=1;whiteSpace=wrap;connectable=0;strokeColor=inherit;overflow=hidden;fillColor=none;top=0;left=0;bottom=0;right=0;pointerEvents=1;" vertex="1" parent="BBPG0FEQW_lTevXBOY9m-110">
          <mxGeometry x="130" width="50" height="50" as="geometry">
            <mxRectangle width="50" height="50" as="alternateBounds" />
          </mxGeometry>
        </mxCell>
        <mxCell id="BBPG0FEQW_lTevXBOY9m-114" value="&lt;b&gt;&lt;i&gt;Arravel&lt;/i&gt;&lt;/b&gt;" style="shape=partialRectangle;html=1;whiteSpace=wrap;connectable=0;strokeColor=inherit;overflow=hidden;fillColor=none;top=0;left=0;bottom=0;right=0;pointerEvents=1;" vertex="1" parent="BBPG0FEQW_lTevXBOY9m-110">
          <mxGeometry x="180" width="60" height="50" as="geometry">
            <mxRectangle width="60" height="50" as="alternateBounds" />
          </mxGeometry>
        </mxCell>
        <mxCell id="BBPG0FEQW_lTevXBOY9m-115" value="&lt;b&gt;&lt;i&gt;Number Of Passneger&lt;/i&gt;&lt;/b&gt;" style="shape=partialRectangle;html=1;whiteSpace=wrap;connectable=0;strokeColor=inherit;overflow=hidden;fillColor=none;top=0;left=0;bottom=0;right=0;pointerEvents=1;" vertex="1" parent="BBPG0FEQW_lTevXBOY9m-110">
          <mxGeometry x="240" width="130" height="50" as="geometry">
            <mxRectangle width="130" height="50" as="alternateBounds" />
          </mxGeometry>
        </mxCell>
        <mxCell id="BBPG0FEQW_lTevXBOY9m-116" value="&lt;b&gt;&lt;i&gt;Departure&lt;/i&gt;&lt;/b&gt;" style="shape=partialRectangle;html=1;whiteSpace=wrap;connectable=0;strokeColor=inherit;overflow=hidden;fillColor=none;top=0;left=0;bottom=0;right=0;pointerEvents=1;" vertex="1" parent="BBPG0FEQW_lTevXBOY9m-110">
          <mxGeometry x="370" width="70" height="50" as="geometry">
            <mxRectangle width="70" height="50" as="alternateBounds" />
          </mxGeometry>
        </mxCell>
        <mxCell id="BBPG0FEQW_lTevXBOY9m-117" value="" style="endArrow=none;dashed=1;html=1;rounded=0;" edge="1" parent="1">
          <mxGeometry width="50" height="50" relative="1" as="geometry">
            <mxPoint x="90" y="630" as="sourcePoint" />
            <mxPoint x="140" y="630" as="targetPoint" />
          </mxGeometry>
        </mxCell>
        <mxCell id="BBPG0FEQW_lTevXBOY9m-119" value="" style="endArrow=none;dashed=1;html=1;rounded=0;" edge="1" parent="1">
          <mxGeometry width="50" height="50" relative="1" as="geometry">
            <mxPoint x="160" y="630" as="sourcePoint" />
            <mxPoint x="200" y="630" as="targetPoint" />
          </mxGeometry>
        </mxCell>
        <mxCell id="BBPG0FEQW_lTevXBOY9m-121" value="" style="endArrow=none;html=1;rounded=0;" edge="1" parent="1">
          <mxGeometry width="50" height="50" relative="1" as="geometry">
            <mxPoint x="87" y="641" as="sourcePoint" />
            <mxPoint x="202" y="641" as="targetPoint" />
          </mxGeometry>
        </mxCell>
        <mxCell id="BBPG0FEQW_lTevXBOY9m-122" style="edgeStyle=orthogonalEdgeStyle;rounded=0;orthogonalLoop=1;jettySize=auto;html=1;exitX=0;exitY=0.5;exitDx=0;exitDy=0;entryX=0;entryY=0.5;entryDx=0;entryDy=0;" edge="1" parent="1" source="BBPG0FEQW_lTevXBOY9m-110" target="BBPG0FEQW_lTevXBOY9m-36">
          <mxGeometry relative="1" as="geometry" />
        </mxCell>
        <mxCell id="BBPG0FEQW_lTevXBOY9m-123" style="edgeStyle=orthogonalEdgeStyle;rounded=0;orthogonalLoop=1;jettySize=auto;html=1;exitX=1;exitY=0.5;exitDx=0;exitDy=0;entryX=1;entryY=0.5;entryDx=0;entryDy=0;" edge="1" parent="1" source="BBPG0FEQW_lTevXBOY9m-110" target="BBPG0FEQW_lTevXBOY9m-55">
          <mxGeometry relative="1" as="geometry" />
        </mxCell>
      </root>
    </mxGraphModel>
  </diagram>
</mxfile>
